<svg width="52" height="43" viewBox="0 0 52 43" fill="none" xmlns="http://www.w3.org/2000/svg">
<mask id="mask0_181_118" style="mask-type:luminance" maskUnits="userSpaceOnUse" x="16" y="16" width="35" height="12">
<path d="M16.1536 16H50.9791V27.2551H16.1536V16Z" fill="white"/>
</mask>
<g mask="url(#mask0_181_118)">
<path d="M50.3616 20.2318C50.3616 20.2318 47.058 21.5722 43.7544 19.7863C40.4509 18.0005 28.5769 11.9335 16.1669 20.8586C16.1669 20.8586 25.8975 17.0776 33.2649 18.4847C40.9883 19.9611 41.9686 22.8659 46.5219 22.6431C50.8017 22.4337 49.5574 27.2857 49.5574 27.2857C49.5574 27.2857 52.058 23.5354 50.3616 20.2318Z" fill="white"/>
</g>
<mask id="mask1_181_118" style="mask-type:luminance" maskUnits="userSpaceOnUse" x="1" y="21" width="38" height="5">
<path d="M1 21.4629H38.0048V25.56H1V21.4629Z" fill="white"/>
</mask>
<g mask="url(#mask1_181_118)">
<path d="M37.7434 21.6976C37.7434 21.6976 24.2917 26.735 12.7446 21.6976C12.7446 21.6976 5.36387 21.1254 1.01868 25.4706C1.01868 25.4706 8.39937 22.5071 12.5058 23.5714C16.6136 24.6371 27.2072 27.2111 37.7434 21.6976Z" fill="white"/>
</g>
</svg>
