<svg width="52" height="43" viewBox="0 0 52 43" fill="none" xmlns="http://www.w3.org/2000/svg">
<path d="M43.4842 25.9175L49.8439 24.0832C51.1271 23.7172 52 22.5426 52 21.2071C52 19.8796 51.115 18.7091 49.8439 18.3309C47.6958 17.7115 45.2662 17.0035 43.4962 16.4966C42.4785 16.199 41.674 15.4347 41.3281 14.429C38.4881 6.04997 30.5475 0 21.2192 0C9.5094 0 0 9.49733 0 21.2071C0 32.9168 9.5094 42.4142 21.2071 42.4142C30.5395 42.4142 38.4761 36.3642 41.308 27.9851C41.6499 26.9795 42.4665 26.2152 43.4842 25.9175ZM48.8463 21.2071L42.6435 22.9971C40.6764 23.5603 39.1076 25.0647 38.4439 26.9996C38.4439 26.9996 38.4439 26.9996 38.4439 27.0117C36.0223 34.196 29.2241 39.3852 21.2192 39.3852C11.1908 39.3852 3.04108 31.2354 3.04108 21.2071C3.04108 11.1788 11.1788 3.02901 21.2192 3.02901C29.2241 3.02901 36.0223 8.21413 38.4439 15.4025C38.4439 15.4025 38.4439 15.4025 38.4439 15.4146C39.1076 17.3494 40.6764 18.8498 42.6435 19.417C44.3692 19.9118 46.7344 20.5997 48.8463 21.2071Z" fill="white"/>
<path d="M15.3703 21.2071C15.3703 21.5772 15.2979 21.9352 15.1571 22.2771C15.0123 22.6191 14.8112 22.9208 14.5497 23.1862C14.2882 23.4477 13.9825 23.6488 13.6406 23.7896C13.2987 23.9344 12.9407 24.0028 12.5706 24.0028C12.2005 24.0028 11.8425 23.9344 11.5006 23.7896C11.1587 23.6488 10.857 23.4477 10.5915 23.1862C10.33 22.9208 10.1289 22.6191 9.98809 22.2771C9.84327 21.9352 9.77489 21.5772 9.77489 21.2071C9.77489 20.8371 9.84327 20.479 9.98809 20.1371C10.1289 19.7952 10.33 19.4895 10.5915 19.228C10.857 18.9665 11.1587 18.7654 11.5006 18.6206C11.8425 18.4798 12.2005 18.4074 12.5706 18.4074C12.9407 18.4074 13.2987 18.4798 13.6406 18.6206C13.9825 18.7654 14.2882 18.9665 14.5497 19.228C14.8112 19.4895 15.0123 19.7952 15.1571 20.1371C15.2979 20.479 15.3703 20.8371 15.3703 21.2071Z" fill="white"/>
<path d="M24.2683 21.2071C24.2683 21.5772 24.1999 21.9352 24.0551 22.2771C23.9143 22.6191 23.7131 22.9208 23.4517 23.1862C23.1862 23.4477 22.8845 23.6488 22.5426 23.7896C22.2007 23.9344 21.8426 24.0028 21.4726 24.0028C21.1025 24.0028 20.7445 23.9344 20.4026 23.7896C20.0566 23.6488 19.7549 23.4477 19.4934 23.1862C19.232 22.9208 19.0309 22.6191 18.886 22.2771C18.7452 21.9352 18.6728 21.5772 18.6728 21.2071C18.6728 20.8371 18.7452 20.479 18.886 20.1371C19.0309 19.7952 19.232 19.4895 19.4934 19.228C19.7549 18.9665 20.0566 18.7654 20.4026 18.6206C20.7445 18.4798 21.1025 18.4074 21.4726 18.4074C21.8426 18.4074 22.2007 18.4798 22.5426 18.6206C22.8845 18.7654 23.1862 18.9665 23.4517 19.228C23.7131 19.4895 23.9143 19.7952 24.0551 20.1371C24.1999 20.479 24.2683 20.8371 24.2683 21.2071Z" fill="white"/>
<path d="M33.1582 21.2071C33.1582 21.5772 33.0858 21.9352 32.945 22.2771C32.8042 22.6191 32.6031 22.9208 32.3376 23.1862C32.0761 23.4477 31.7744 23.6488 31.4325 23.7896C31.0906 23.9344 30.7326 24.0028 30.3625 24.0028C29.9884 24.0028 29.6344 23.9344 29.2925 23.7896C28.9465 23.6488 28.6449 23.4477 28.3834 23.1862C28.1219 22.9208 27.9208 22.6191 27.776 22.2771C27.6352 21.9352 27.5628 21.5772 27.5628 21.2071C27.5628 20.8371 27.6352 20.479 27.776 20.1371C27.9208 19.7952 28.1219 19.4895 28.3834 19.228C28.6449 18.9665 28.9465 18.7654 29.2925 18.6206C29.6344 18.4798 29.9884 18.4074 30.3625 18.4074C30.7326 18.4074 31.0906 18.4798 31.4325 18.6206C31.7744 18.7654 32.0761 18.9665 32.3376 19.228C32.6031 19.4895 32.8042 19.7952 32.945 20.1371C33.0858 20.479 33.1582 20.8371 33.1582 21.2071Z" fill="white"/>
    <style>
        path { fill: #000; }
        @media (prefers-color-scheme: dark) {
            path { fill: #FFF; }
        }
    </style>
</svg>
