<svg width="268" height="43" viewBox="0 0 268 43" fill="none" xmlns="http://www.w3.org/2000/svg">
<path d="M80.7693 17.5071H77.0506C76.9445 16.8973 76.749 16.357 76.4639 15.8864C76.1789 15.4091 75.8242 15.0047 75.4 14.6733C74.9758 14.3419 74.4918 14.0933 73.9483 13.9276C73.4114 13.7552 72.8313 13.669 72.2082 13.669C71.1012 13.669 70.1202 13.9474 69.2651 14.5043C68.4099 15.0544 67.7404 15.8632 67.2565 16.9304C66.7726 17.991 66.5307 19.2869 66.5307 20.8182C66.5307 22.3759 66.7726 23.6884 67.2565 24.7557C67.7471 25.8163 68.4166 26.6184 69.2651 27.1619C70.1202 27.6989 71.0979 27.9673 72.1983 27.9673C72.8081 27.9673 73.3782 27.8878 73.9085 27.7287C74.4454 27.563 74.926 27.321 75.3503 27.0028C75.7811 26.6847 76.1424 26.2936 76.4341 25.8295C76.7324 25.3655 76.9379 24.8352 77.0506 24.2386L80.7693 24.2585C80.6301 25.2263 80.3285 26.1345 79.8645 26.983C79.4071 27.8314 78.8072 28.5805 78.0648 29.2301C77.3223 29.8731 76.454 30.3769 75.4597 30.7415C74.4653 31.0994 73.3616 31.2784 72.1486 31.2784C70.3588 31.2784 68.7613 30.8641 67.356 30.0355C65.9507 29.2069 64.8436 28.0104 64.0349 26.446C63.2262 24.8816 62.8219 23.0057 62.8219 20.8182C62.8219 18.6241 63.2295 16.7481 64.0449 15.1903C64.8602 13.6259 65.9705 12.4295 67.3758 11.6009C68.7811 10.7723 70.3721 10.358 72.1486 10.358C73.2821 10.358 74.3361 10.517 75.3105 10.8352C76.2849 11.1534 77.1533 11.6207 77.9156 12.2372C78.6779 12.8471 79.3043 13.5961 79.7949 14.4844C80.292 15.366 80.6168 16.3736 80.7693 17.5071ZM85.6278 22.0511V31H82.0284V10.6364H85.5483V18.3224H85.7273C86.0852 17.4607 86.6387 16.7812 87.3878 16.2841C88.1435 15.7803 89.1046 15.5284 90.2713 15.5284C91.3319 15.5284 92.2566 15.7505 93.0455 16.1946C93.8343 16.6387 94.4441 17.2884 94.875 18.1435C95.3125 18.9986 95.5313 20.0426 95.5313 21.2756V31H91.9318V21.8324C91.9318 20.8049 91.6667 20.0062 91.1364 19.4361C90.6127 18.8594 89.8769 18.571 88.929 18.571C88.2926 18.571 87.7225 18.7102 87.2188 18.9886C86.7216 19.2604 86.3305 19.6548 86.0455 20.1719C85.7671 20.6889 85.6278 21.3153 85.6278 22.0511ZM101.635 31.3082C100.667 31.3082 99.7957 31.1359 99.0201 30.7912C98.2512 30.4399 97.6413 29.9228 97.1906 29.2401C96.7464 28.5573 96.5244 27.7154 96.5244 26.7145C96.5244 25.8527 96.6835 25.1402 97.0017 24.5767C97.3198 24.0133 97.754 23.5625 98.3042 23.2244C98.8544 22.8864 99.4742 22.6312 100.164 22.4588C100.86 22.2798 101.579 22.1506 102.321 22.071C103.216 21.9782 103.942 21.8954 104.499 21.8224C105.056 21.7429 105.46 21.6236 105.712 21.4645C105.97 21.2988 106.1 21.0436 106.1 20.6989V20.6392C106.1 19.8902 105.878 19.3101 105.433 18.8991C104.989 18.4882 104.35 18.2827 103.514 18.2827C102.633 18.2827 101.933 18.4749 101.416 18.8594C100.906 19.2438 100.561 19.6979 100.382 20.2216L97.0215 19.7443C97.2867 18.8163 97.7242 18.0407 98.334 17.4176C98.9439 16.7879 99.6896 16.3172 100.571 16.0057C101.453 15.6875 102.427 15.5284 103.495 15.5284C104.23 15.5284 104.963 15.6146 105.692 15.7869C106.421 15.9593 107.087 16.2443 107.691 16.642C108.294 17.0331 108.778 17.5668 109.142 18.2429C109.513 18.919 109.699 19.7642 109.699 20.7784V31H106.239V28.902H106.12C105.901 29.3262 105.593 29.724 105.195 30.0952C104.804 30.4598 104.31 30.7547 103.713 30.9801C103.123 31.1989 102.431 31.3082 101.635 31.3082ZM102.57 28.6634C103.292 28.6634 103.919 28.5208 104.449 28.2358C104.979 27.9441 105.387 27.5597 105.672 27.0824C105.964 26.6051 106.11 26.0848 106.11 25.5213V23.7216C105.997 23.8144 105.805 23.9006 105.533 23.9801C105.268 24.0597 104.969 24.1293 104.638 24.1889C104.307 24.2486 103.978 24.3016 103.654 24.348C103.329 24.3944 103.047 24.4342 102.808 24.4673C102.272 24.5402 101.791 24.6596 101.367 24.8253C100.942 24.991 100.608 25.223 100.362 25.5213C100.117 25.813 99.9946 26.1908 99.9946 26.6548C99.9946 27.3177 100.237 27.8182 100.72 28.1562C101.204 28.4943 101.821 28.6634 102.57 28.6634ZM118.985 15.7273V18.5114H110.205V15.7273H118.985ZM112.373 12.0682H115.972V26.4062C115.972 26.8902 116.045 27.2614 116.191 27.5199C116.343 27.7718 116.542 27.9441 116.787 28.0369C117.033 28.1297 117.304 28.1761 117.603 28.1761C117.828 28.1761 118.034 28.1596 118.219 28.1264C118.411 28.0933 118.557 28.0634 118.657 28.0369L119.263 30.8509C119.071 30.9171 118.796 30.9901 118.438 31.0696C118.087 31.1491 117.656 31.1955 117.145 31.2088C116.244 31.2353 115.432 31.0994 114.709 30.8011C113.987 30.4962 113.413 30.0256 112.989 29.3892C112.571 28.7528 112.366 27.9574 112.373 27.0028V12.0682ZM125.18 31V10.6364H138.225V13.7287H128.868V19.2571H137.33V22.3494H128.868V31H125.18ZM143.066 10.6364V31H139.467V10.6364H143.066ZM151.469 31.2983C149.978 31.2983 148.685 30.9702 147.592 30.3139C146.498 29.6577 145.649 28.7396 145.046 27.5597C144.45 26.3797 144.151 25.0009 144.151 23.4233C144.151 21.8456 144.45 20.4635 145.046 19.277C145.649 18.0904 146.498 17.169 147.592 16.5128C148.685 15.8565 149.978 15.5284 151.469 15.5284C152.961 15.5284 154.254 15.8565 155.347 16.5128C156.441 17.169 157.286 18.0904 157.883 19.277C158.486 20.4635 158.788 21.8456 158.788 23.4233C158.788 25.0009 158.486 26.3797 157.883 27.5597C157.286 28.7396 156.441 29.6577 155.347 30.3139C154.254 30.9702 152.961 31.2983 151.469 31.2983ZM151.489 28.4148C152.298 28.4148 152.974 28.1927 153.518 27.7486C154.061 27.2978 154.466 26.6946 154.731 25.9389C155.003 25.1832 155.138 24.3414 155.138 23.4134C155.138 22.4787 155.003 21.6335 154.731 20.8778C154.466 20.1155 154.061 19.509 153.518 19.0582C152.974 18.6075 152.298 18.3821 151.489 18.3821C150.661 18.3821 149.971 18.6075 149.421 19.0582C148.878 19.509 148.47 20.1155 148.198 20.8778C147.933 21.6335 147.8 22.4787 147.8 23.4134C147.8 24.3414 147.933 25.1832 148.198 25.9389C148.47 26.6946 148.878 27.2978 149.421 27.7486C149.971 28.1927 150.661 28.4148 151.489 28.4148ZM162.597 31L158.282 15.7273H161.951L164.635 26.4659H164.775L167.519 15.7273H171.148L173.893 26.4062H174.042L176.687 15.7273H180.366L176.04 31H172.292L169.428 20.679H169.219L166.356 31H162.597ZM186.063 31V10.6364H193.859C195.33 10.6364 196.553 10.8684 197.528 11.3324C198.509 11.7898 199.241 12.4162 199.725 13.2116C200.216 14.0071 200.461 14.9086 200.461 15.9162C200.461 16.7448 200.302 17.4541 199.984 18.044C199.665 18.6274 199.238 19.1013 198.701 19.4659C198.164 19.8305 197.564 20.0923 196.901 20.2514V20.4503C197.624 20.4901 198.316 20.7121 198.979 21.1165C199.649 21.5142 200.196 22.0777 200.62 22.8068C201.044 23.536 201.256 24.4176 201.256 25.4517C201.256 26.5057 201.001 27.4536 200.491 28.2955C199.98 29.1307 199.211 29.7902 198.184 30.2741C197.156 30.758 195.864 31 194.306 31H186.063ZM189.752 27.9176H193.719C195.058 27.9176 196.023 27.6624 196.613 27.152C197.209 26.6349 197.508 25.9721 197.508 25.1634C197.508 24.5601 197.359 24.0166 197.06 23.5327C196.762 23.0421 196.338 22.6577 195.788 22.3793C195.237 22.0942 194.581 21.9517 193.819 21.9517H189.752V27.9176ZM189.752 19.2969H193.401C194.038 19.2969 194.611 19.1809 195.121 18.9489C195.632 18.7102 196.033 18.3755 196.324 17.9446C196.623 17.5071 196.772 16.9901 196.772 16.3935C196.772 15.6046 196.494 14.955 195.937 14.4446C195.387 13.9342 194.568 13.679 193.481 13.679H189.752V19.2969ZM212.081 24.5767V15.7273H215.68V31H212.19V28.2855H212.031C211.686 29.1406 211.12 29.84 210.331 30.3835C209.549 30.9271 208.584 31.1989 207.437 31.1989C206.436 31.1989 205.551 30.9768 204.782 30.5327C204.02 30.0819 203.424 29.429 202.993 28.5739C202.562 27.7121 202.346 26.6714 202.346 25.4517V15.7273H205.946V24.8949C205.946 25.8627 206.211 26.6316 206.741 27.2017C207.272 27.7718 207.968 28.0568 208.829 28.0568C209.36 28.0568 209.873 27.9276 210.371 27.669C210.868 27.4105 211.275 27.026 211.594 26.5156C211.918 25.9986 212.081 25.3523 212.081 24.5767ZM217.422 31V15.7273H221.021V31H217.422ZM219.231 13.5597C218.661 13.5597 218.171 13.3707 217.76 12.9929C217.349 12.6084 217.143 12.1477 217.143 11.6108C217.143 11.0672 217.349 10.6065 217.76 10.2287C218.171 9.84422 218.661 9.65199 219.231 9.65199C219.808 9.65199 220.298 9.84422 220.703 10.2287C221.114 10.6065 221.319 11.0672 221.319 11.6108C221.319 12.1477 221.114 12.6084 220.703 12.9929C220.298 13.3707 219.808 13.5597 219.231 13.5597ZM226.362 10.6364V31H222.762V10.6364H226.362ZM233.771 31.2685C232.571 31.2685 231.497 30.9602 230.549 30.3438C229.601 29.7273 228.852 28.8324 228.302 27.6591C227.752 26.4858 227.477 25.0606 227.477 23.3835C227.477 21.6866 227.755 20.2547 228.312 19.0881C228.875 17.9148 229.634 17.0298 230.589 16.4332C231.543 15.83 232.607 15.5284 233.781 15.5284C234.676 15.5284 235.411 15.6809 235.988 15.9858C236.565 16.2841 237.022 16.6454 237.36 17.0696C237.698 17.4872 237.96 17.8816 238.146 18.2528H238.295V10.6364H241.904V31H238.364V28.5938H238.146C237.96 28.965 237.692 29.3594 237.34 29.777C236.989 30.188 236.525 30.5393 235.948 30.831C235.372 31.1226 234.646 31.2685 233.771 31.2685ZM234.775 28.3153C235.537 28.3153 236.187 28.1098 236.724 27.6989C237.261 27.2812 237.668 26.7012 237.947 25.9588C238.225 25.2164 238.364 24.3513 238.364 23.3636C238.364 22.3759 238.225 21.5175 237.947 20.7884C237.675 20.0592 237.271 19.4924 236.734 19.0881C236.203 18.6837 235.551 18.4815 234.775 18.4815C233.973 18.4815 233.303 18.6903 232.766 19.108C232.23 19.5256 231.825 20.1023 231.553 20.8381C231.282 21.5739 231.146 22.4157 231.146 23.3636C231.146 24.3182 231.282 25.17 231.553 25.919C231.832 26.6615 232.239 27.2481 232.776 27.679C233.32 28.1032 233.986 28.3153 234.775 28.3153ZM250.541 31.2983C249.01 31.2983 247.687 30.9801 246.574 30.3438C245.467 29.7008 244.615 28.7926 244.018 27.6193C243.422 26.4394 243.124 25.0507 243.124 23.4531C243.124 21.8821 243.422 20.5033 244.018 19.3168C244.622 18.1236 245.464 17.1955 246.544 16.5327C247.625 15.8632 248.894 15.5284 250.352 15.5284C251.294 15.5284 252.182 15.6809 253.017 15.9858C253.859 16.2841 254.601 16.7481 255.244 17.3778C255.894 18.0076 256.404 18.8097 256.776 19.7841C257.147 20.7519 257.332 21.9053 257.332 23.2443V24.348H244.814V21.9219H253.882C253.875 21.2325 253.726 20.6193 253.435 20.0824C253.143 19.5388 252.735 19.1113 252.212 18.7997C251.695 18.4882 251.091 18.3324 250.402 18.3324C249.666 18.3324 249.02 18.5114 248.463 18.8693C247.906 19.2206 247.472 19.6847 247.161 20.2614C246.856 20.8314 246.7 21.4579 246.693 22.1406V24.2585C246.693 25.1468 246.856 25.9091 247.18 26.5455C247.505 27.1752 247.959 27.6591 248.543 27.9972C249.126 28.3286 249.809 28.4943 250.591 28.4943C251.115 28.4943 251.589 28.4214 252.013 28.2756C252.437 28.1231 252.805 27.901 253.116 27.6094C253.428 27.3177 253.663 26.9564 253.822 26.5256L257.183 26.9034C256.971 27.7917 256.567 28.5672 255.97 29.2301C255.38 29.8864 254.625 30.3968 253.703 30.7614C252.782 31.1193 251.728 31.2983 250.541 31.2983ZM258.417 31V15.7273H261.908V18.2727H262.067C262.345 17.3911 262.822 16.7116 263.498 16.2344C264.181 15.7505 264.96 15.5085 265.835 15.5085C266.034 15.5085 266.256 15.5185 266.501 15.5384C266.753 15.5516 266.962 15.5748 267.128 15.608V18.919C266.975 18.866 266.733 18.8196 266.402 18.7798C266.077 18.7334 265.762 18.7102 265.457 18.7102C264.801 18.7102 264.211 18.8527 263.687 19.1378C263.17 19.4162 262.763 19.804 262.464 20.3011C262.166 20.7983 262.017 21.3717 262.017 22.0213V31H258.417Z" fill="white"/>
<path d="M43.4842 25.9175L49.8439 24.0832C51.1271 23.7172 52 22.5426 52 21.2071C52 19.8796 51.115 18.7091 49.8439 18.3309C47.6958 17.7115 45.2662 17.0035 43.4962 16.4966C42.4785 16.199 41.674 15.4347 41.3281 14.429C38.4881 6.04997 30.5475 0 21.2192 0C9.5094 0 0 9.49733 0 21.2071C0 32.9168 9.5094 42.4142 21.2071 42.4142C30.5395 42.4142 38.4761 36.3642 41.308 27.9851C41.6499 26.9795 42.4665 26.2152 43.4842 25.9175ZM48.8463 21.2071L42.6435 22.9971C40.6764 23.5603 39.1076 25.0647 38.4439 26.9996C38.4439 26.9996 38.4439 26.9996 38.4439 27.0117C36.0223 34.196 29.2241 39.3852 21.2192 39.3852C11.1908 39.3852 3.04108 31.2354 3.04108 21.2071C3.04108 11.1788 11.1788 3.02901 21.2192 3.02901C29.2241 3.02901 36.0223 8.21413 38.4439 15.4025C38.4439 15.4025 38.4439 15.4025 38.4439 15.4146C39.1076 17.3494 40.6764 18.8498 42.6435 19.417C44.3692 19.9118 46.7344 20.5997 48.8463 21.2071Z" fill="white"/>
<path d="M15.3703 21.2071C15.3703 21.5772 15.2979 21.9352 15.1571 22.2771C15.0123 22.6191 14.8112 22.9208 14.5497 23.1862C14.2882 23.4477 13.9825 23.6488 13.6406 23.7896C13.2987 23.9344 12.9407 24.0028 12.5706 24.0028C12.2005 24.0028 11.8425 23.9344 11.5006 23.7896C11.1587 23.6488 10.857 23.4477 10.5915 23.1862C10.33 22.9208 10.1289 22.6191 9.98809 22.2771C9.84327 21.9352 9.77489 21.5772 9.77489 21.2071C9.77489 20.8371 9.84327 20.479 9.98809 20.1371C10.1289 19.7952 10.33 19.4895 10.5915 19.228C10.857 18.9665 11.1587 18.7654 11.5006 18.6206C11.8425 18.4798 12.2005 18.4074 12.5706 18.4074C12.9407 18.4074 13.2987 18.4798 13.6406 18.6206C13.9825 18.7654 14.2882 18.9665 14.5497 19.228C14.8112 19.4895 15.0123 19.7952 15.1571 20.1371C15.2979 20.479 15.3703 20.8371 15.3703 21.2071Z" fill="white"/>
<path d="M24.2683 21.2071C24.2683 21.5772 24.1999 21.9352 24.0551 22.2771C23.9143 22.6191 23.7131 22.9208 23.4517 23.1862C23.1862 23.4477 22.8845 23.6488 22.5426 23.7896C22.2007 23.9344 21.8426 24.0028 21.4726 24.0028C21.1025 24.0028 20.7445 23.9344 20.4026 23.7896C20.0566 23.6488 19.7549 23.4477 19.4934 23.1862C19.232 22.9208 19.0309 22.6191 18.886 22.2771C18.7452 21.9352 18.6728 21.5772 18.6728 21.2071C18.6728 20.8371 18.7452 20.479 18.886 20.1371C19.0309 19.7952 19.232 19.4895 19.4934 19.228C19.7549 18.9665 20.0566 18.7654 20.4026 18.6206C20.7445 18.4798 21.1025 18.4074 21.4726 18.4074C21.8426 18.4074 22.2007 18.4798 22.5426 18.6206C22.8845 18.7654 23.1862 18.9665 23.4517 19.228C23.7131 19.4895 23.9143 19.7952 24.0551 20.1371C24.1999 20.479 24.2683 20.8371 24.2683 21.2071Z" fill="white"/>
<path d="M33.1582 21.2071C33.1582 21.5772 33.0858 21.9352 32.945 22.2771C32.8042 22.6191 32.6031 22.9208 32.3376 23.1862C32.0761 23.4477 31.7744 23.6488 31.4325 23.7896C31.0906 23.9344 30.7326 24.0028 30.3625 24.0028C29.9884 24.0028 29.6344 23.9344 29.2925 23.7896C28.9465 23.6488 28.6449 23.4477 28.3834 23.1862C28.1219 22.9208 27.9208 22.6191 27.776 22.2771C27.6352 21.9352 27.5628 21.5772 27.5628 21.2071C27.5628 20.8371 27.6352 20.479 27.776 20.1371C27.9208 19.7952 28.1219 19.4895 28.3834 19.228C28.6449 18.9665 28.9465 18.7654 29.2925 18.6206C29.6344 18.4798 29.9884 18.4074 30.3625 18.4074C30.7326 18.4074 31.0906 18.4798 31.4325 18.6206C31.7744 18.7654 32.0761 18.9665 32.3376 19.228C32.6031 19.4895 32.8042 19.7952 32.945 20.1371C33.0858 20.479 33.1582 20.8371 33.1582 21.2071Z" fill="white"/>
</svg>
